<svg aria-hidden="true" style="position: absolute; width: 0; height: 0; overflow: hidden;" version="1.1" xmlns="http://www.w3.org/2000/svg" xmlns:xlink="http://www.w3.org/1999/xlink">
<defs>
<symbol id="icon-add" viewBox="0 0 32 32">
<path fill="#fff" style="fill: var(--color1, #fff)" d="M24.96 17.28h-7.68v7.68h-2.56v-7.68h-7.68v-2.56h7.68v-7.68h2.56v7.68h7.68v2.56z"></path>
</symbol>
<symbol id="icon-calendar" viewBox="0 0 32 32">
<path fill="#9b9faa" style="fill: var(--color2, #9b9faa)" d="M24 14.4h-3.2v3.2h3.2v-3.2z"></path>
<path fill="#9b9faa" style="fill: var(--color2, #9b9faa)" d="M17.6 14.4h-3.2v3.2h3.2v-3.2z"></path>
<path fill="#9b9faa" style="fill: var(--color2, #9b9faa)" d="M11.2 14.4h-3.2v3.2h3.2v-3.2z"></path>
<path fill="#9b9faa" style="fill: var(--color2, #9b9faa)" d="M27.2 3.2h-1.6v-3.2h-3.2v3.2h-12.8v-3.2h-3.2v3.2h-1.6c-1.776 0-3.184 1.44-3.184 3.2l-0.016 22.4c0 1.76 1.424 3.2 3.2 3.2h22.4c1.76 0 3.2-1.44 3.2-3.2v-22.4c0-1.76-1.44-3.2-3.2-3.2zM27.2 28.8h-22.4v-17.6h22.4v17.6z"></path>
</symbol>
<symbol id="icon-goBack" viewBox="0 0 53 32">
<path stroke-linejoin="miter" stroke-linecap="butt" stroke-miterlimit="4" stroke-width="7.1111" d="M49.778 5.333v10.667h-42.667M7.111 16l12.444-12.444M7.111 16l12.444 12.444"></path>
</symbol>
<symbol id="icon-menu" viewBox="0 0 32 32">
<path d="M4 24h24v-2.667h-24v2.667zM4 17.333h24v-2.667h-24v2.667zM4 8v2.667h24v-2.667h-24z"></path>
</symbol>
<symbol id="icon-close" viewBox="0 0 32 32">
<path stroke-linejoin="miter" stroke-linecap="butt" stroke-miterlimit="4" stroke-width="2.6667" d="M8 8l16 16"></path>
<path stroke-linejoin="miter" stroke-linecap="butt" stroke-miterlimit="4" stroke-width="2.6667" d="M8 24l16-16"></path>
</symbol>
</defs>
</svg>
